<?xml version="1.0" standalone="no"?><!DOCTYPE svg PUBLIC "-//W3C//DTD SVG 1.1//EN" "http://www.w3.org/Graphics/SVG/1.1/DTD/svg11.dtd"><svg class="icon" width="200px" height="200.00px" viewBox="0 0 1024 1024" version="1.1" xmlns="http://www.w3.org/2000/svg"><path fill="#ffffff" d="M228.5 754.2c-63.7 0-115.5-51.8-115.5-115.5v-189c0-63.7 51.8-115.5 115.5-115.5S344 386 344 449.7v189c0 63.6-51.8 115.5-115.5 115.5z m0-378c-40.5 0-73.5 33-73.5 73.5v189c0 40.5 33 73.5 73.5 73.5s73.5-33 73.5-73.5v-189c0-40.6-33-73.5-73.5-73.5zM795.5 754.2c-63.7 0-115.5-51.8-115.5-115.5v-189c0-63.7 51.8-115.5 115.5-115.5S911 386 911 449.7v189c0 63.6-51.8 115.5-115.5 115.5z m0-378c-40.5 0-73.5 33-73.5 73.5v189c0 40.5 33 73.5 73.5 73.5s73.5-33 73.5-73.5v-189c0-40.6-33-73.5-73.5-73.5zM772.9 357.7c-14.8-133.1-127-233.5-260.9-233.5S265.9 224.5 251.1 357.7l-41.8-4.6C226.5 198.6 356.6 82.2 512 82.2S797.5 198.6 814.7 353l-41.8 4.7zM533 941.8h-42c-34.7 0-63-28.3-63-63s28.3-63 63-63h42c34.7 0 63 28.3 63 63s-28.3 63-63 63z m-42-84c-11.6 0-21 9.4-21 21s9.4 21 21 21h42c11.6 0 21-9.4 21-21s-9.4-21-21-21h-42zM581.6 895.6c-9.7 0-18.4-6.8-20.5-16.7-2.4-11.4 4.9-22.5 16.2-24.9 78-16.5 146.5-61.6 192.8-127.1 6.7-9.4 19.8-11.7 29.3-5 9.5 6.7 11.7 19.8 5 29.3-52.5 74.1-130 125.3-218.4 144-1.4 0.2-2.9 0.4-4.4 0.4z" /></svg>